<?xml version="1.0" encoding="UTF-8" standalone="no"?><svg xmlns="http://www.w3.org/2000/svg" xmlns:xlink="http://www.w3.org/1999/xlink" clip-rule="evenodd" stroke-miterlimit="4.00" viewBox="0 0 1024 768"><desc>SVG generated by Keynote</desc><defs></defs><g transform="matrix(1.00, 0.00, -0.00, -1.00, 0.0, 768.0)"><path d="M 0.0 768.0 L 1024.0 768.0 L 1024.0 0.0 L 0.0 0.0 Z M 0.0 768.0 " fill="#FEFFFE"></path><text xml:space="preserve" font-family="HelveticaNeue-Light" font-size="45.0" fill="#000000" transform="matrix(1.00, 0.00, -0.00, -1.00, 85.0, 367.0)">W</text><text xml:space="preserve" font-family="HelveticaNeue-Light" font-size="45.0" fill="#000000" transform="matrix(1.00, 0.00, -0.00, -1.00, 125.8, 367.0)">h</text><text xml:space="preserve" font-family="HelveticaNeue-Light" font-size="45.0" fill="#000000" transform="matrix(1.00, 0.00, -0.00, -1.00, 150.0, 367.0)">y</text><text xml:space="preserve" font-family="HelveticaNeue-Light" font-size="45.0" fill="#000000" transform="matrix(1.00, 0.00, -0.00, -1.00, 170.8, 367.0)"> </text><text xml:space="preserve" font-family="HelveticaNeue-Light" font-size="45.0" fill="#000000" transform="matrix(1.00, 0.00, -0.00, -1.00, 183.3, 367.0)">d</text><text xml:space="preserve" font-family="HelveticaNeue-Light" font-size="45.0" fill="#000000" transform="matrix(1.00, 0.00, -0.00, -1.00, 209.2, 367.0)">i</text><text xml:space="preserve" font-family="HelveticaNeue-Light" font-size="45.0" fill="#000000" transform="matrix(1.00, 0.00, -0.00, -1.00, 217.5, 367.0)">d</text><text xml:space="preserve" font-family="HelveticaNeue-Light" font-size="45.0" fill="#000000" transform="matrix(1.00, 0.00, -0.00, -1.00, 243.3, 367.0)"> </text><text xml:space="preserve" font-family="HelveticaNeue-Light" font-size="45.0" fill="#000000" transform="matrix(1.00, 0.00, -0.00, -1.00, 255.8, 367.0)">I</text><text xml:space="preserve" font-family="HelveticaNeue-Light" font-size="45.0" fill="#000000" transform="matrix(1.00, 0.00, -0.00, -1.00, 265.8, 367.0)"> </text><text xml:space="preserve" font-family="HelveticaNeue-Light" font-size="45.0" fill="#000000" transform="matrix(1.00, 0.00, -0.00, -1.00, 278.3, 367.0)">n</text><text xml:space="preserve" font-family="HelveticaNeue-Light" font-size="45.0" fill="#000000" transform="matrix(1.00, 0.00, -0.00, -1.00, 302.5, 367.0)">o</text><text xml:space="preserve" font-family="HelveticaNeue-Light" font-size="45.0" fill="#000000" transform="matrix(1.00, 0.00, -0.00, -1.00, 327.5, 367.0)">t</text><text xml:space="preserve" font-family="HelveticaNeue-Light" font-size="45.0" fill="#000000" transform="matrix(1.00, 0.00, -0.00, -1.00, 340.8, 367.0)"> </text><text xml:space="preserve" font-family="HelveticaNeue-Light" font-size="45.0" fill="#000000" transform="matrix(1.00, 0.00, -0.00, -1.00, 353.3, 367.0)">t</text><text xml:space="preserve" font-family="HelveticaNeue-Light" font-size="45.0" fill="#000000" transform="matrix(1.00, 0.00, -0.00, -1.00, 366.7, 367.0)">r</text><text xml:space="preserve" font-family="HelveticaNeue-Light" font-size="45.0" fill="#000000" transform="matrix(1.00, 0.00, -0.00, -1.00, 380.8, 367.0)">y</text><text xml:space="preserve" font-family="HelveticaNeue-Light" font-size="45.0" fill="#000000" transform="matrix(1.00, 0.00, -0.00, -1.00, 401.7, 367.0)"> </text><text xml:space="preserve" font-family="HelveticaNeue-Light" font-size="45.0" fill="#000000" transform="matrix(1.00, 0.00, -0.00, -1.00, 414.2, 367.0)">t</text><text xml:space="preserve" font-family="HelveticaNeue-Light" font-size="45.0" fill="#000000" transform="matrix(1.00, 0.00, -0.00, -1.00, 427.5, 367.0)">o</text><text xml:space="preserve" font-family="HelveticaNeue-Light" font-size="45.0" fill="#000000" transform="matrix(1.00, 0.00, -0.00, -1.00, 452.5, 367.0)"> </text><text xml:space="preserve" font-family="HelveticaNeue-Light" font-size="45.0" fill="#000000" transform="matrix(1.00, 0.00, -0.00, -1.00, 465.0, 367.0)">t</text><text xml:space="preserve" font-family="HelveticaNeue-Light" font-size="45.0" fill="#000000" transform="matrix(1.00, 0.00, -0.00, -1.00, 478.3, 367.0)">a</text><text xml:space="preserve" font-family="HelveticaNeue-Light" font-size="45.0" fill="#000000" transform="matrix(1.00, 0.00, -0.00, -1.00, 501.7, 367.0)">c</text><text xml:space="preserve" font-family="HelveticaNeue-Light" font-size="45.0" fill="#000000" transform="matrix(1.00, 0.00, -0.00, -1.00, 525.1, 367.0)">k</text><text xml:space="preserve" font-family="HelveticaNeue-Light" font-size="45.0" fill="#000000" transform="matrix(1.00, 0.00, -0.00, -1.00, 547.6, 367.0)">l</text><text xml:space="preserve" font-family="HelveticaNeue-Light" font-size="45.0" fill="#000000" transform="matrix(1.00, 0.00, -0.00, -1.00, 555.9, 367.0)">e</text><text xml:space="preserve" font-family="HelveticaNeue-Light" font-size="45.0" fill="#000000" transform="matrix(1.00, 0.00, -0.00, -1.00, 579.2, 367.0)"> </text><text xml:space="preserve" font-family="HelveticaNeue-Light" font-size="45.0" fill="#000000" transform="matrix(1.00, 0.00, -0.00, -1.00, 591.7, 367.0)">t</text><text xml:space="preserve" font-family="HelveticaNeue-Light" font-size="45.0" fill="#000000" transform="matrix(1.00, 0.00, -0.00, -1.00, 605.1, 367.0)">h</text><text xml:space="preserve" font-family="HelveticaNeue-Light" font-size="45.0" fill="#000000" transform="matrix(1.00, 0.00, -0.00, -1.00, 629.2, 367.0)">e</text><text xml:space="preserve" font-family="HelveticaNeue-Light" font-size="45.0" fill="#000000" transform="matrix(1.00, 0.00, -0.00, -1.00, 652.6, 367.0)"> </text><text xml:space="preserve" font-family="HelveticaNeue-Light" font-size="45.0" fill="#000000" transform="matrix(1.00, 0.00, -0.00, -1.00, 665.1, 367.0)">“</text><text xml:space="preserve" font-family="HelveticaNeue-Light" font-size="45.0" fill="#000000" transform="matrix(1.00, 0.00, -0.00, -1.00, 681.7, 367.0)">h</text><text xml:space="preserve" font-family="HelveticaNeue-Light" font-size="45.0" fill="#000000" transform="matrix(1.00, 0.00, -0.00, -1.00, 705.9, 367.0)">a</text><text xml:space="preserve" font-family="HelveticaNeue-Light" font-size="45.0" fill="#000000" transform="matrix(1.00, 0.00, -0.00, -1.00, 729.3, 367.0)">r</text><text xml:space="preserve" font-family="HelveticaNeue-Light" font-size="45.0" fill="#000000" transform="matrix(1.00, 0.00, -0.00, -1.00, 742.6, 367.0)">d</text><text xml:space="preserve" font-family="HelveticaNeue-Light" font-size="45.0" fill="#000000" transform="matrix(1.00, 0.00, -0.00, -1.00, 768.5, 367.0)">”</text><text xml:space="preserve" font-family="HelveticaNeue-Light" font-size="45.0" fill="#000000" transform="matrix(1.00, 0.00, -0.00, -1.00, 785.1, 367.0)"> </text><text xml:space="preserve" font-family="HelveticaNeue-Light" font-size="45.0" fill="#000000" transform="matrix(1.00, 0.00, -0.00, -1.00, 797.6, 367.0)">t</text><text xml:space="preserve" font-family="HelveticaNeue-Light" font-size="45.0" fill="#000000" transform="matrix(1.00, 0.00, -0.00, -1.00, 810.9, 367.0)">h</text><text xml:space="preserve" font-family="HelveticaNeue-Light" font-size="45.0" fill="#000000" transform="matrix(1.00, 0.00, -0.00, -1.00, 835.1, 367.0)">i</text><text xml:space="preserve" font-family="HelveticaNeue-Light" font-size="45.0" fill="#000000" transform="matrix(1.00, 0.00, -0.00, -1.00, 843.4, 367.0)">n</text><text xml:space="preserve" font-family="HelveticaNeue-Light" font-size="45.0" fill="#000000" transform="matrix(1.00, 0.00, -0.00, -1.00, 867.6, 367.0)">g</text><text xml:space="preserve" font-family="HelveticaNeue-Light" font-size="45.0" fill="#000000" transform="matrix(1.00, 0.00, -0.00, -1.00, 892.6, 367.0)">s</text><text xml:space="preserve" font-family="HelveticaNeue-Light" font-size="45.0" fill="#000000" transform="matrix(1.00, 0.00, -0.00, -1.00, 914.3, 367.0)">?</text></g></svg>