<?xml version="1.0" encoding="UTF-8" standalone="no"?><svg xmlns="http://www.w3.org/2000/svg" xmlns:xlink="http://www.w3.org/1999/xlink" clip-rule="evenodd" stroke-miterlimit="4.00" viewBox="0 0 1024 768"><desc>SVG generated by Keynote</desc><defs></defs><g transform="matrix(1.00, 0.00, -0.00, -1.00, 0.0, 768.0)"><path d="M 0.0 768.0 L 1024.0 768.0 L 1024.0 0.0 L 0.0 0.0 Z M 0.0 768.0 " fill="#FEFFFE"></path><g><clipPath id="clip-30"><path d="M 7.0 765.0 L 1017.0 765.0 L 1017.0 332.0 L 7.0 332.0 Z M 7.2 765.2 "></path></clipPath><g clip-path="url(#clip-30)"><image xlink:href="../../06E4211E-F944-44DD-9740-D330AFDE85C4/assets/52C323EBDB8514DCDDED87EDB7EDCCED.png" width="961.00" height="412.00" transform="matrix(1.05, 0.00, -0.00, -1.05, 7.0, 765.0)"></image></g></g><path d="M 0.0 0.0 L 166.3 0.0 L 166.3 42.6 L 0.0 42.6 Z M 0.0 0.0 " fill="none" stroke="#763A33" stroke-width="5.00" transform="matrix(1.00, 0.00, 0.00, -1.00, 476.1, 559.7)"></path><image xlink:href="../../8F0956A2-F2BA-4EB7-BE52-D61668E481B9/assets/7D4EEC48878646792A6B182C81C5C88C.png" width="961.00" height="345.00" transform="matrix(1.01, 0.00, -0.00, -1.01, 29.0, 712.0)"></image><image xlink:href="../../8F0956A2-F2BA-4EB7-BE52-D61668E481B9/assets/21FE2875BE77A55987C7B8C05F5DA3E6.png" width="960.00" height="266.00" transform="matrix(1.07, 0.00, -0.00, -1.07, -3.0, 324.0)"></image></g></svg>