<?xml version="1.0" encoding="UTF-8" standalone="no"?><svg xmlns="http://www.w3.org/2000/svg" xmlns:xlink="http://www.w3.org/1999/xlink" clip-rule="evenodd" stroke-miterlimit="4.00" viewBox="0 0 1024 768"><desc>SVG generated by Keynote</desc><defs></defs><g transform="matrix(1.00, 0.00, -0.00, -1.00, 0.0, 768.0)"><path d="M 0.0 768.0 L 1024.0 768.0 L 1024.0 0.0 L 0.0 0.0 Z M 0.0 768.0 " fill="#FEFFFE"></path><g><clipPath id="clip-18"><path d="M -7.0 841.0 L 1031.0 841.0 L 1031.0 62.0 L -7.0 62.0 Z M -7.2 840.6 "></path></clipPath><g clip-path="url(#clip-18)"><image xlink:href="0E3B0EA7C279555306CE24F6F9C8A14D.png" width="890.00" height="540.00" transform="matrix(1.17, 0.00, -0.00, -1.17, -7.0, 766.0)"></image></g></g><text xml:space="preserve" font-family="HelveticaNeue-Light" font-size="60.0" fill="#000000" transform="matrix(1.00, 0.00, -0.00, -1.00, 404.0, 52.0)">V</text><text xml:space="preserve" font-family="HelveticaNeue-Light" font-size="60.0" fill="#000000" transform="matrix(1.00, 0.00, -0.00, -1.00, 436.3, 52.0)">a</text><text xml:space="preserve" font-family="HelveticaNeue-Light" font-size="60.0" fill="#000000" transform="matrix(1.00, 0.00, -0.00, -1.00, 467.4, 52.0)">n</text><text xml:space="preserve" font-family="HelveticaNeue-Light" font-size="60.0" fill="#000000" transform="matrix(1.00, 0.00, -0.00, -1.00, 499.6, 52.0)">i</text><text xml:space="preserve" font-family="HelveticaNeue-Light" font-size="60.0" fill="#000000" transform="matrix(1.00, 0.00, -0.00, -1.00, 510.7, 52.0)">l</text><text xml:space="preserve" font-family="HelveticaNeue-Light" font-size="60.0" fill="#000000" transform="matrix(1.00, 0.00, -0.00, -1.00, 521.8, 52.0)">l</text><text xml:space="preserve" font-family="HelveticaNeue-Light" font-size="60.0" fill="#000000" transform="matrix(1.00, 0.00, -0.00, -1.00, 532.9, 52.0)">a</text><text xml:space="preserve" font-family="HelveticaNeue-Light" font-size="60.0" fill="#000000" transform="matrix(1.00, 0.00, -0.00, -1.00, 564.1, 52.0)">.</text><text xml:space="preserve" font-family="HelveticaNeue-Light" font-size="60.0" fill="#000000" transform="matrix(1.00, 0.00, -0.00, -1.00, 580.8, 52.0)">j</text><text xml:space="preserve" font-family="HelveticaNeue-Light" font-size="60.0" fill="#000000" transform="matrix(1.00, 0.00, -0.00, -1.00, 591.9, 52.0)">s</text></g></svg>