<?xml version="1.0" encoding="UTF-8" standalone="no"?><svg xmlns="http://www.w3.org/2000/svg" xmlns:xlink="http://www.w3.org/1999/xlink" clip-rule="evenodd" stroke-miterlimit="4.00" viewBox="0 0 1024 768"><desc>SVG generated by Keynote</desc><defs></defs><g transform="matrix(1.00, 0.00, -0.00, -1.00, 0.0, 768.0)"><path d="M 0.0 768.0 L 1024.0 768.0 L 1024.0 0.0 L 0.0 0.0 Z M 0.0 768.0 " fill="#FEFFFE"></path><text xml:space="preserve" font-family="HelveticaNeue-Light" font-size="45.0" fill="#000000" transform="matrix(1.00, 0.00, -0.00, -1.00, 93.0, 367.0)">I</text><text xml:space="preserve" font-family="HelveticaNeue-Light" font-size="45.0" fill="#000000" transform="matrix(1.00, 0.00, -0.00, -1.00, 103.0, 367.0)">t</text><text xml:space="preserve" font-family="HelveticaNeue-Light" font-size="45.0" fill="#000000" transform="matrix(1.00, 0.00, -0.00, -1.00, 116.3, 367.0)"> </text><text xml:space="preserve" font-family="HelveticaNeue-Light" font-size="45.0" fill="#000000" transform="matrix(1.00, 0.00, -0.00, -1.00, 128.8, 367.0)">f</text><text xml:space="preserve" font-family="HelveticaNeue-Light" font-size="45.0" fill="#000000" transform="matrix(1.00, 0.00, -0.00, -1.00, 140.5, 367.0)">e</text><text xml:space="preserve" font-family="HelveticaNeue-Light" font-size="45.0" fill="#000000" transform="matrix(1.00, 0.00, -0.00, -1.00, 163.8, 367.0)">l</text><text xml:space="preserve" font-family="HelveticaNeue-Light" font-size="45.0" fill="#000000" transform="matrix(1.00, 0.00, -0.00, -1.00, 172.2, 367.0)">t</text><text xml:space="preserve" font-family="HelveticaNeue-Light" font-size="45.0" fill="#000000" transform="matrix(1.00, 0.00, -0.00, -1.00, 185.5, 367.0)"> </text><text xml:space="preserve" font-family="HelveticaNeue-Light" font-size="45.0" fill="#000000" transform="matrix(1.00, 0.00, -0.00, -1.00, 198.0, 367.0)">l</text><text xml:space="preserve" font-family="HelveticaNeue-Light" font-size="45.0" fill="#000000" transform="matrix(1.00, 0.00, -0.00, -1.00, 206.3, 367.0)">i</text><text xml:space="preserve" font-family="HelveticaNeue-Light" font-size="45.0" fill="#000000" transform="matrix(1.00, 0.00, -0.00, -1.00, 214.6, 367.0)">k</text><text xml:space="preserve" font-family="HelveticaNeue-Light" font-size="45.0" fill="#000000" transform="matrix(1.00, 0.00, -0.00, -1.00, 237.1, 367.0)">e</text><text xml:space="preserve" font-family="HelveticaNeue-Light" font-size="45.0" fill="#000000" transform="matrix(1.00, 0.00, -0.00, -1.00, 260.5, 367.0)"> </text><text xml:space="preserve" font-family="HelveticaNeue-Light" font-size="45.0" fill="#000000" transform="matrix(1.00, 0.00, -0.00, -1.00, 273.0, 367.0)">t</text><text xml:space="preserve" font-family="HelveticaNeue-Light" font-size="45.0" fill="#000000" transform="matrix(1.00, 0.00, -0.00, -1.00, 286.3, 367.0)">h</text><text xml:space="preserve" font-family="HelveticaNeue-Light" font-size="45.0" fill="#000000" transform="matrix(1.00, 0.00, -0.00, -1.00, 310.5, 367.0)">e</text><text xml:space="preserve" font-family="HelveticaNeue-Light" font-size="45.0" fill="#000000" transform="matrix(1.00, 0.00, -0.00, -1.00, 333.8, 367.0)"> </text><text xml:space="preserve" font-family="HelveticaNeue-Light" font-size="45.0" fill="#000000" transform="matrix(1.00, 0.00, -0.00, -1.00, 346.3, 367.0)">p</text><text xml:space="preserve" font-family="HelveticaNeue-Light" font-size="45.0" fill="#000000" transform="matrix(1.00, 0.00, -0.00, -1.00, 372.2, 367.0)">r</text><text xml:space="preserve" font-family="HelveticaNeue-Light" font-size="45.0" fill="#000000" transform="matrix(1.00, 0.00, -0.00, -1.00, 385.5, 367.0)">o</text><text xml:space="preserve" font-family="HelveticaNeue-Light" font-size="45.0" fill="#000000" transform="matrix(1.00, 0.00, -0.00, -1.00, 410.6, 367.0)">j</text><text xml:space="preserve" font-family="HelveticaNeue-Light" font-size="45.0" fill="#000000" transform="matrix(1.00, 0.00, -0.00, -1.00, 418.9, 367.0)">e</text><text xml:space="preserve" font-family="HelveticaNeue-Light" font-size="45.0" fill="#000000" transform="matrix(1.00, 0.00, -0.00, -1.00, 442.2, 367.0)">c</text><text xml:space="preserve" font-family="HelveticaNeue-Light" font-size="45.0" fill="#000000" transform="matrix(1.00, 0.00, -0.00, -1.00, 465.6, 367.0)">t</text><text xml:space="preserve" font-family="HelveticaNeue-Light" font-size="45.0" fill="#000000" transform="matrix(1.00, 0.00, -0.00, -1.00, 478.9, 367.0)"> </text><text xml:space="preserve" font-family="HelveticaNeue-Light" font-size="45.0" fill="#000000" transform="matrix(1.00, 0.00, -0.00, -1.00, 491.4, 367.0)">w</text><text xml:space="preserve" font-family="HelveticaNeue-Light" font-size="45.0" fill="#000000" transform="matrix(1.00, 0.00, -0.00, -1.00, 524.8, 367.0)">a</text><text xml:space="preserve" font-family="HelveticaNeue-Light" font-size="45.0" fill="#000000" transform="matrix(1.00, 0.00, -0.00, -1.00, 548.1, 367.0)">s</text><text xml:space="preserve" font-family="HelveticaNeue-Light" font-size="45.0" fill="#000000" transform="matrix(1.00, 0.00, -0.00, -1.00, 569.8, 367.0)">n</text><text xml:space="preserve" font-family="HelveticaNeue-Light" font-size="45.0" fill="#000000" transform="matrix(1.00, 0.00, -0.00, -1.00, 593.9, 367.0)">’</text><text xml:space="preserve" font-family="HelveticaNeue-Light" font-size="45.0" fill="#000000" transform="matrix(1.00, 0.00, -0.00, -1.00, 605.6, 367.0)">t</text><text xml:space="preserve" font-family="HelveticaNeue-Light" font-size="45.0" fill="#000000" transform="matrix(1.00, 0.00, -0.00, -1.00, 619.0, 367.0)"> </text><text xml:space="preserve" font-family="HelveticaNeue-Light" font-size="45.0" fill="#000000" transform="matrix(1.00, 0.00, -0.00, -1.00, 631.5, 367.0)">m</text><text xml:space="preserve" font-family="HelveticaNeue-Light" font-size="45.0" fill="#000000" transform="matrix(1.00, 0.00, -0.00, -1.00, 669.0, 367.0)">o</text><text xml:space="preserve" font-family="HelveticaNeue-Light" font-size="45.0" fill="#000000" transform="matrix(1.00, 0.00, -0.00, -1.00, 694.0, 367.0)">v</text><text xml:space="preserve" font-family="HelveticaNeue-Light" font-size="45.0" fill="#000000" transform="matrix(1.00, 0.00, -0.00, -1.00, 714.8, 367.0)">i</text><text xml:space="preserve" font-family="HelveticaNeue-Light" font-size="45.0" fill="#000000" transform="matrix(1.00, 0.00, -0.00, -1.00, 723.1, 367.0)">n</text><text xml:space="preserve" font-family="HelveticaNeue-Light" font-size="45.0" fill="#000000" transform="matrix(1.00, 0.00, -0.00, -1.00, 747.3, 367.0)">g</text><text xml:space="preserve" font-family="HelveticaNeue-Light" font-size="45.0" fill="#000000" transform="matrix(1.00, 0.00, -0.00, -1.00, 772.3, 367.0)"> </text><text xml:space="preserve" font-family="HelveticaNeue-Light" font-size="45.0" fill="#000000" transform="matrix(1.00, 0.00, -0.00, -1.00, 784.8, 367.0)">f</text><text xml:space="preserve" font-family="HelveticaNeue-Light" font-size="45.0" fill="#000000" transform="matrix(1.00, 0.00, -0.00, -1.00, 796.5, 367.0)">o</text><text xml:space="preserve" font-family="HelveticaNeue-Light" font-size="45.0" fill="#000000" transform="matrix(1.00, 0.00, -0.00, -1.00, 821.5, 367.0)">r</text><text xml:space="preserve" font-family="HelveticaNeue-Light" font-size="45.0" fill="#000000" transform="matrix(1.00, 0.00, -0.00, -1.00, 835.7, 367.0)">w</text><text xml:space="preserve" font-family="HelveticaNeue-Light" font-size="45.0" fill="#000000" transform="matrix(1.00, 0.00, -0.00, -1.00, 869.0, 367.0)">a</text><text xml:space="preserve" font-family="HelveticaNeue-Light" font-size="45.0" fill="#000000" transform="matrix(1.00, 0.00, -0.00, -1.00, 892.4, 367.0)">r</text><text xml:space="preserve" font-family="HelveticaNeue-Light" font-size="45.0" fill="#000000" transform="matrix(1.00, 0.00, -0.00, -1.00, 905.7, 367.0)">d</text></g></svg>