<?xml version="1.0" encoding="UTF-8" standalone="no"?><svg xmlns="http://www.w3.org/2000/svg" xmlns:xlink="http://www.w3.org/1999/xlink" clip-rule="evenodd" stroke-miterlimit="4.00" viewBox="0 0 1024 768"><desc>SVG generated by Keynote</desc><defs></defs><g transform="matrix(1.00, 0.00, -0.00, -1.00, 0.0, 768.0)"><path d="M 0.0 768.0 L 1024.0 768.0 L 1024.0 0.0 L 0.0 0.0 Z M 0.0 768.0 " fill="#FEFFFE"></path><text xml:space="preserve" font-family="HelveticaNeue-Light" font-size="61.0" fill="#000000" transform="matrix(1.00, 0.00, -0.00, -1.00, 263.0, 450.0)">C</text><text xml:space="preserve" font-family="HelveticaNeue-Light" font-size="61.0" fill="#000000" transform="matrix(1.00, 0.00, -0.00, -1.00, 305.9, 450.0)">o</text><text xml:space="preserve" font-family="HelveticaNeue-Light" font-size="61.0" fill="#000000" transform="matrix(1.00, 0.00, -0.00, -1.00, 339.9, 450.0)">n</text><text xml:space="preserve" font-family="HelveticaNeue-Light" font-size="61.0" fill="#000000" transform="matrix(1.00, 0.00, -0.00, -1.00, 372.6, 450.0)">t</text><text xml:space="preserve" font-family="HelveticaNeue-Light" font-size="61.0" fill="#000000" transform="matrix(1.00, 0.00, -0.00, -1.00, 390.7, 450.0)">r</text><text xml:space="preserve" font-family="HelveticaNeue-Light" font-size="61.0" fill="#000000" transform="matrix(1.00, 0.00, -0.00, -1.00, 409.9, 450.0)">i</text><text xml:space="preserve" font-family="HelveticaNeue-Light" font-size="61.0" fill="#000000" transform="matrix(1.00, 0.00, -0.00, -1.00, 421.2, 450.0)">b</text><text xml:space="preserve" font-family="HelveticaNeue-Light" font-size="61.0" fill="#000000" transform="matrix(1.00, 0.00, -0.00, -1.00, 456.2, 450.0)">u</text><text xml:space="preserve" font-family="HelveticaNeue-Light" font-size="61.0" fill="#000000" transform="matrix(1.00, 0.00, -0.00, -1.00, 488.9, 450.0)">t</text><text xml:space="preserve" font-family="HelveticaNeue-Light" font-size="61.0" fill="#000000" transform="matrix(1.00, 0.00, -0.00, -1.00, 507.0, 450.0)">e</text><text xml:space="preserve" font-family="HelveticaNeue-Light" font-size="61.0" fill="#000000" transform="matrix(1.00, 0.00, -0.00, -1.00, 538.7, 450.0)"> </text><text xml:space="preserve" font-family="HelveticaNeue-Light" font-size="61.0" fill="#000000" transform="matrix(1.00, 0.00, -0.00, -1.00, 555.6, 450.0)">t</text><text xml:space="preserve" font-family="HelveticaNeue-Light" font-size="61.0" fill="#000000" transform="matrix(1.00, 0.00, -0.00, -1.00, 573.7, 450.0)">o</text><text xml:space="preserve" font-family="HelveticaNeue-Light" font-size="61.0" fill="#000000" transform="matrix(1.00, 0.00, -0.00, -1.00, 607.6, 450.0)"> </text><text xml:space="preserve" font-family="HelveticaNeue-Light" font-size="61.0" fill="#000000" transform="matrix(1.00, 0.00, -0.00, -1.00, 624.5, 450.0)">O</text><text xml:space="preserve" font-family="HelveticaNeue-Light" font-size="61.0" fill="#000000" transform="matrix(1.00, 0.00, -0.00, -1.00, 669.7, 450.0)">S</text><text xml:space="preserve" font-family="HelveticaNeue-Light" font-size="61.0" fill="#000000" transform="matrix(1.00, 0.00, -0.00, -1.00, 708.2, 450.0)">S</text><text xml:space="preserve" font-family="HelveticaNeue-Light" font-size="61.0" fill="#000000" transform="matrix(1.00, 0.00, -0.00, -1.00, 746.6, 450.0)">!</text><g><clipPath id="clip-10"><path d="M 261.8 463.5 L 761.2 463.5 L 761.2 468.6 L 261.8 468.6 Z M 261.8 463.5 "></path></clipPath><g clip-path="url(#clip-10)"><path d="M 4.5 47.1 L 502.8 47.1 " fill="none" stroke="#000000" stroke-width="3.07" stroke-miterlimit="0.00" transform="matrix(1.00, 0.00, 0.00, -1.00, 258.3, 513.2)"></path></g></g><text xml:space="preserve" font-family="HelveticaNeue-Light" font-size="61.0" fill="#000000" transform="matrix(1.00, 0.00, -0.00, -1.00, 226.0, 272.0)">B</text><text xml:space="preserve" font-family="HelveticaNeue-Light" font-size="61.0" fill="#000000" transform="matrix(1.00, 0.00, -0.00, -1.00, 266.7, 272.0)">e</text><text xml:space="preserve" font-family="HelveticaNeue-Light" font-size="61.0" fill="#000000" transform="matrix(1.00, 0.00, -0.00, -1.00, 298.3, 272.0)">c</text><text xml:space="preserve" font-family="HelveticaNeue-Light" font-size="61.0" fill="#000000" transform="matrix(1.00, 0.00, -0.00, -1.00, 330.0, 272.0)">o</text><text xml:space="preserve" font-family="HelveticaNeue-Light" font-size="61.0" fill="#000000" transform="matrix(1.00, 0.00, -0.00, -1.00, 363.9, 272.0)">m</text><text xml:space="preserve" font-family="HelveticaNeue-Light" font-size="61.0" fill="#000000" transform="matrix(1.00, 0.00, -0.00, -1.00, 414.7, 272.0)">e</text><text xml:space="preserve" font-family="HelveticaNeue-Light" font-size="61.0" fill="#000000" transform="matrix(1.00, 0.00, -0.00, -1.00, 446.4, 272.0)"> </text><text xml:space="preserve" font-family="HelveticaNeue-Light" font-size="61.0" fill="#000000" transform="matrix(1.00, 0.00, -0.00, -1.00, 463.4, 272.0)">a</text><text xml:space="preserve" font-family="HelveticaNeue-Light" font-size="61.0" fill="#000000" transform="matrix(1.00, 0.00, -0.00, -1.00, 495.0, 272.0)"> </text><text xml:space="preserve" font-family="HelveticaNeue-Light" font-size="61.0" fill="#000000" transform="matrix(1.00, 0.00, -0.00, -1.00, 512.0, 272.0)">m</text><text xml:space="preserve" font-family="HelveticaNeue-Light" font-size="61.0" fill="#000000" transform="matrix(1.00, 0.00, -0.00, -1.00, 562.8, 272.0)">a</text><text xml:space="preserve" font-family="HelveticaNeue-Light" font-size="61.0" fill="#000000" transform="matrix(1.00, 0.00, -0.00, -1.00, 594.4, 272.0)">i</text><text xml:space="preserve" font-family="HelveticaNeue-Light" font-size="61.0" fill="#000000" transform="matrix(1.00, 0.00, -0.00, -1.00, 605.7, 272.0)">n</text><text xml:space="preserve" font-family="HelveticaNeue-Light" font-size="61.0" fill="#000000" transform="matrix(1.00, 0.00, -0.00, -1.00, 638.5, 272.0)">t</text><text xml:space="preserve" font-family="HelveticaNeue-Light" font-size="61.0" fill="#000000" transform="matrix(1.00, 0.00, -0.00, -1.00, 656.5, 272.0)">a</text><text xml:space="preserve" font-family="HelveticaNeue-Light" font-size="61.0" fill="#000000" transform="matrix(1.00, 0.00, -0.00, -1.00, 688.2, 272.0)">i</text><text xml:space="preserve" font-family="HelveticaNeue-Light" font-size="61.0" fill="#000000" transform="matrix(1.00, 0.00, -0.00, -1.00, 699.5, 272.0)">n</text><text xml:space="preserve" font-family="HelveticaNeue-Light" font-size="61.0" fill="#000000" transform="matrix(1.00, 0.00, -0.00, -1.00, 732.2, 272.0)">e</text><text xml:space="preserve" font-family="HelveticaNeue-Light" font-size="61.0" fill="#000000" transform="matrix(1.00, 0.00, -0.00, -1.00, 763.9, 272.0)">r</text><text xml:space="preserve" font-family="HelveticaNeue-Light" font-size="61.0" fill="#000000" transform="matrix(1.00, 0.00, -0.00, -1.00, 783.1, 272.0)">!</text><g><clipPath id="clip-11"><path d="M 225.1 285.5 L 797.9 285.5 L 797.9 290.5 L 225.1 290.5 Z M 225.1 285.5 "></path></clipPath><g clip-path="url(#clip-11)"><path d="M 4.5 47.1 L 576.3 47.1 " fill="none" stroke="#000000" stroke-width="3.07" stroke-miterlimit="0.00" transform="matrix(1.00, 0.00, 0.00, -1.00, 221.6, 335.1)"></path></g></g></g></svg>