<?xml version="1.0" encoding="UTF-8" standalone="no"?><svg xmlns="http://www.w3.org/2000/svg" xmlns:xlink="http://www.w3.org/1999/xlink" clip-rule="evenodd" stroke-miterlimit="4.00" viewBox="0 0 1024 768"><desc>SVG generated by Keynote</desc><defs></defs><g transform="matrix(1.00, 0.00, -0.00, -1.00, 0.0, 768.0)"><path d="M 0.0 768.0 L 1024.0 768.0 L 1024.0 0.0 L 0.0 0.0 Z M 0.0 768.0 " fill="#FEFFFE"></path><text xml:space="preserve" font-family="HelveticaNeue-Light" font-size="52.0" fill="#747373" transform="matrix(1.00, 0.00, -0.00, -1.00, 225.0, 382.0)">E</text><text xml:space="preserve" font-family="HelveticaNeue-Light" font-size="52.0" fill="#747373" transform="matrix(1.00, 0.00, -0.00, -1.00, 255.8, 382.0)">n</text><text xml:space="preserve" font-family="HelveticaNeue-Light" font-size="52.0" fill="#747373" transform="matrix(1.00, 0.00, -0.00, -1.00, 283.8, 382.0)">c</text><text xml:space="preserve" font-family="HelveticaNeue-Light" font-size="52.0" fill="#747373" transform="matrix(1.00, 0.00, -0.00, -1.00, 310.7, 382.0)">o</text><text xml:space="preserve" font-family="HelveticaNeue-Light" font-size="52.0" fill="#747373" transform="matrix(1.00, 0.00, -0.00, -1.00, 339.7, 382.0)">u</text><text xml:space="preserve" font-family="HelveticaNeue-Light" font-size="52.0" fill="#747373" transform="matrix(1.00, 0.00, -0.00, -1.00, 367.6, 382.0)">r</text><text xml:space="preserve" font-family="HelveticaNeue-Light" font-size="52.0" fill="#747373" transform="matrix(1.00, 0.00, -0.00, -1.00, 384.0, 382.0)">a</text><text xml:space="preserve" font-family="HelveticaNeue-Light" font-size="52.0" fill="#747373" transform="matrix(1.00, 0.00, -0.00, -1.00, 411.0, 382.0)">g</text><text xml:space="preserve" font-family="HelveticaNeue-Light" font-size="52.0" fill="#747373" transform="matrix(1.00, 0.00, -0.00, -1.00, 439.9, 382.0)">i</text><text xml:space="preserve" font-family="HelveticaNeue-Light" font-size="52.0" fill="#747373" transform="matrix(1.00, 0.00, -0.00, -1.00, 449.5, 382.0)">n</text><text xml:space="preserve" font-family="HelveticaNeue-Light" font-size="52.0" fill="#747373" transform="matrix(1.00, 0.00, -0.00, -1.00, 477.4, 382.0)">g</text><text xml:space="preserve" font-family="HelveticaNeue-Light" font-size="52.0" fill="#747373" transform="matrix(1.00, 0.00, -0.00, -1.00, 506.3, 382.0)"> </text><text xml:space="preserve" font-family="HelveticaNeue-Light" font-size="52.0" fill="#747373" transform="matrix(1.00, 0.00, -0.00, -1.00, 520.8, 382.0)">C</text><text xml:space="preserve" font-family="HelveticaNeue-Light" font-size="52.0" fill="#747373" transform="matrix(1.00, 0.00, -0.00, -1.00, 557.4, 382.0)">o</text><text xml:space="preserve" font-family="HelveticaNeue-Light" font-size="52.0" fill="#747373" transform="matrix(1.00, 0.00, -0.00, -1.00, 586.3, 382.0)">n</text><text xml:space="preserve" font-family="HelveticaNeue-Light" font-size="52.0" fill="#747373" transform="matrix(1.00, 0.00, -0.00, -1.00, 614.2, 382.0)">t</text><text xml:space="preserve" font-family="HelveticaNeue-Light" font-size="52.0" fill="#747373" transform="matrix(1.00, 0.00, -0.00, -1.00, 629.6, 382.0)">r</text><text xml:space="preserve" font-family="HelveticaNeue-Light" font-size="52.0" fill="#747373" transform="matrix(1.00, 0.00, -0.00, -1.00, 646.0, 382.0)">i</text><text xml:space="preserve" font-family="HelveticaNeue-Light" font-size="52.0" fill="#747373" transform="matrix(1.00, 0.00, -0.00, -1.00, 655.6, 382.0)">b</text><text xml:space="preserve" font-family="HelveticaNeue-Light" font-size="52.0" fill="#747373" transform="matrix(1.00, 0.00, -0.00, -1.00, 685.5, 382.0)">u</text><text xml:space="preserve" font-family="HelveticaNeue-Light" font-size="52.0" fill="#747373" transform="matrix(1.00, 0.00, -0.00, -1.00, 713.4, 382.0)">t</text><text xml:space="preserve" font-family="HelveticaNeue-Light" font-size="52.0" fill="#747373" transform="matrix(1.00, 0.00, -0.00, -1.00, 728.8, 382.0)">o</text><text xml:space="preserve" font-family="HelveticaNeue-Light" font-size="52.0" fill="#747373" transform="matrix(1.00, 0.00, -0.00, -1.00, 757.7, 382.0)">r</text><text xml:space="preserve" font-family="HelveticaNeue-Light" font-size="52.0" fill="#747373" transform="matrix(1.00, 0.00, -0.00, -1.00, 774.1, 382.0)">s</text></g></svg>