<?xml version="1.0" encoding="UTF-8" standalone="no"?><svg xmlns="http://www.w3.org/2000/svg" xmlns:xlink="http://www.w3.org/1999/xlink" clip-rule="evenodd" stroke-miterlimit="4.00" viewBox="0 0 1024 768"><desc>SVG generated by Keynote</desc><defs></defs><g transform="matrix(1.00, 0.00, -0.00, -1.00, 0.0, 768.0)"><path d="M 0.0 768.0 L 1024.0 768.0 L 1024.0 0.0 L 0.0 0.0 Z M 0.0 768.0 " fill="#FEFFFE"></path><text xml:space="preserve" font-family="HelveticaNeue-Light" font-size="60.0" fill="#747373" transform="matrix(1.00, 0.00, -0.00, -1.00, 241.0, 192.0)">I</text><text xml:space="preserve" font-family="HelveticaNeue-Light" font-size="60.0" fill="#747373" transform="matrix(1.00, 0.00, -0.00, -1.00, 254.3, 192.0)">n</text><text xml:space="preserve" font-family="HelveticaNeue-Light" font-size="60.0" fill="#747373" transform="matrix(1.00, 0.00, -0.00, -1.00, 286.5, 192.0)">t</text><text xml:space="preserve" font-family="HelveticaNeue-Light" font-size="60.0" fill="#747373" transform="matrix(1.00, 0.00, -0.00, -1.00, 304.3, 192.0)">r</text><text xml:space="preserve" font-family="HelveticaNeue-Light" font-size="60.0" fill="#747373" transform="matrix(1.00, 0.00, -0.00, -1.00, 322.1, 192.0)">o</text><text xml:space="preserve" font-family="HelveticaNeue-Light" font-size="60.0" fill="#747373" transform="matrix(1.00, 0.00, -0.00, -1.00, 355.5, 192.0)"> </text><text xml:space="preserve" font-family="HelveticaNeue-Light" font-size="60.0" fill="#747373" transform="matrix(1.00, 0.00, -0.00, -1.00, 372.2, 192.0)">t</text><text xml:space="preserve" font-family="HelveticaNeue-Light" font-size="60.0" fill="#747373" transform="matrix(1.00, 0.00, -0.00, -1.00, 389.9, 192.0)">o</text><text xml:space="preserve" font-family="HelveticaNeue-Light" font-size="60.0" fill="#747373" transform="matrix(1.00, 0.00, -0.00, -1.00, 423.3, 192.0)"> </text><text xml:space="preserve" font-family="HelveticaNeue-Light" font-size="60.0" fill="#747373" transform="matrix(1.00, 0.00, -0.00, -1.00, 440.0, 192.0)">O</text><text xml:space="preserve" font-family="HelveticaNeue-Light" font-size="60.0" fill="#747373" transform="matrix(1.00, 0.00, -0.00, -1.00, 484.4, 192.0)">p</text><text xml:space="preserve" font-family="HelveticaNeue-Light" font-size="60.0" fill="#747373" transform="matrix(1.00, 0.00, -0.00, -1.00, 518.9, 192.0)">e</text><text xml:space="preserve" font-family="HelveticaNeue-Light" font-size="60.0" fill="#747373" transform="matrix(1.00, 0.00, -0.00, -1.00, 550.0, 192.0)">n</text><text xml:space="preserve" font-family="HelveticaNeue-Light" font-size="60.0" fill="#747373" transform="matrix(1.00, 0.00, -0.00, -1.00, 582.2, 192.0)"> </text><text xml:space="preserve" font-family="HelveticaNeue-Light" font-size="60.0" fill="#747373" transform="matrix(1.00, 0.00, -0.00, -1.00, 598.9, 192.0)">S</text><text xml:space="preserve" font-family="HelveticaNeue-Light" font-size="60.0" fill="#747373" transform="matrix(1.00, 0.00, -0.00, -1.00, 636.7, 192.0)">o</text><text xml:space="preserve" font-family="HelveticaNeue-Light" font-size="60.0" fill="#747373" transform="matrix(1.00, 0.00, -0.00, -1.00, 670.1, 192.0)">u</text><text xml:space="preserve" font-family="HelveticaNeue-Light" font-size="60.0" fill="#747373" transform="matrix(1.00, 0.00, -0.00, -1.00, 702.3, 192.0)">r</text><text xml:space="preserve" font-family="HelveticaNeue-Light" font-size="60.0" fill="#747373" transform="matrix(1.00, 0.00, -0.00, -1.00, 720.1, 192.0)">c</text><text xml:space="preserve" font-family="HelveticaNeue-Light" font-size="60.0" fill="#747373" transform="matrix(1.00, 0.00, -0.00, -1.00, 751.2, 192.0)">e</text><g><clipPath id="clip-15"><path d="M -183.0 587.0 L 1207.0 587.0 L 1207.0 294.0 L -183.0 294.0 Z M -183.2 587.4 "></path></clipPath><g clip-path="url(#clip-15)"><image xlink:href="../../A28A2641-C883-41E4-940B-783607BA2416/assets/626A6BA45C2BAA11951A7332B665F006.png" width="512.00" height="250.00" transform="matrix(1.31, 0.00, -0.00, -1.31, 176.0, 605.0)"></image></g></g></g></svg>