<?xml version="1.0" encoding="UTF-8" standalone="no"?><svg xmlns="http://www.w3.org/2000/svg" xmlns:xlink="http://www.w3.org/1999/xlink" clip-rule="evenodd" stroke-miterlimit="4.00" viewBox="0 0 1024 768"><desc>SVG generated by Keynote</desc><defs></defs><g transform="matrix(1.00, 0.00, -0.00, -1.00, 0.0, 768.0)"><path d="M 0.0 768.0 L 1024.0 768.0 L 1024.0 0.0 L 0.0 0.0 Z M 0.0 768.0 " fill="#FEFFFE"></path><text xml:space="preserve" font-family="HelveticaNeue-Light" font-size="60.0" fill="#747373" transform="matrix(1.00, 0.00, -0.00, -1.00, 180.0, 203.0)">O</text><text xml:space="preserve" font-family="HelveticaNeue-Light" font-size="60.0" fill="#747373" transform="matrix(1.00, 0.00, -0.00, -1.00, 224.5, 203.0)">h</text><text xml:space="preserve" font-family="HelveticaNeue-Light" font-size="60.0" fill="#747373" transform="matrix(1.00, 0.00, -0.00, -1.00, 256.7, 203.0)"> </text><text xml:space="preserve" font-family="HelveticaNeue-Light" font-size="60.0" fill="#747373" transform="matrix(1.00, 0.00, -0.00, -1.00, 273.4, 203.0)">I</text><text xml:space="preserve" font-family="HelveticaNeue-Light" font-size="60.0" fill="#747373" transform="matrix(1.00, 0.00, -0.00, -1.00, 286.7, 203.0)">’</text><text xml:space="preserve" font-family="HelveticaNeue-Light" font-size="60.0" fill="#747373" transform="matrix(1.00, 0.00, -0.00, -1.00, 303.4, 203.0)">m</text><text xml:space="preserve" font-family="HelveticaNeue-Light" font-size="60.0" fill="#747373" transform="matrix(1.00, 0.00, -0.00, -1.00, 353.3, 203.0)"> </text><text xml:space="preserve" font-family="HelveticaNeue-Light" font-size="60.0" fill="#747373" transform="matrix(1.00, 0.00, -0.00, -1.00, 370.0, 203.0)">a</text><text xml:space="preserve" font-family="HelveticaNeue-Light" font-size="60.0" fill="#747373" transform="matrix(1.00, 0.00, -0.00, -1.00, 401.2, 203.0)"> </text><text xml:space="preserve" font-family="HelveticaNeue-Light" font-size="60.0" fill="#747373" transform="matrix(1.00, 0.00, -0.00, -1.00, 417.8, 203.0)">m</text><text xml:space="preserve" font-family="HelveticaNeue-Light" font-size="60.0" fill="#747373" transform="matrix(1.00, 0.00, -0.00, -1.00, 467.8, 203.0)">a</text><text xml:space="preserve" font-family="HelveticaNeue-Light" font-size="60.0" fill="#747373" transform="matrix(1.00, 0.00, -0.00, -1.00, 499.0, 203.0)">i</text><text xml:space="preserve" font-family="HelveticaNeue-Light" font-size="60.0" fill="#747373" transform="matrix(1.00, 0.00, -0.00, -1.00, 510.1, 203.0)">n</text><text xml:space="preserve" font-family="HelveticaNeue-Light" font-size="60.0" fill="#747373" transform="matrix(1.00, 0.00, -0.00, -1.00, 542.3, 203.0)">t</text><text xml:space="preserve" font-family="HelveticaNeue-Light" font-size="60.0" fill="#747373" transform="matrix(1.00, 0.00, -0.00, -1.00, 560.0, 203.0)">a</text><text xml:space="preserve" font-family="HelveticaNeue-Light" font-size="60.0" fill="#747373" transform="matrix(1.00, 0.00, -0.00, -1.00, 591.2, 203.0)">i</text><text xml:space="preserve" font-family="HelveticaNeue-Light" font-size="60.0" fill="#747373" transform="matrix(1.00, 0.00, -0.00, -1.00, 602.3, 203.0)">n</text><text xml:space="preserve" font-family="HelveticaNeue-Light" font-size="60.0" fill="#747373" transform="matrix(1.00, 0.00, -0.00, -1.00, 634.5, 203.0)">e</text><text xml:space="preserve" font-family="HelveticaNeue-Light" font-size="60.0" fill="#747373" transform="matrix(1.00, 0.00, -0.00, -1.00, 665.6, 203.0)">r</text><text xml:space="preserve" font-family="HelveticaNeue-Light" font-size="60.0" fill="#747373" transform="matrix(1.00, 0.00, -0.00, -1.00, 684.5, 203.0)"> </text><text xml:space="preserve" font-family="HelveticaNeue-Light" font-size="60.0" fill="#747373" transform="matrix(1.00, 0.00, -0.00, -1.00, 701.2, 203.0)">n</text><text xml:space="preserve" font-family="HelveticaNeue-Light" font-size="60.0" fill="#747373" transform="matrix(1.00, 0.00, -0.00, -1.00, 733.4, 203.0)">o</text><text xml:space="preserve" font-family="HelveticaNeue-Light" font-size="60.0" fill="#747373" transform="matrix(1.00, 0.00, -0.00, -1.00, 766.8, 203.0)">w</text><text xml:space="preserve" font-family="HelveticaNeue-Light" font-size="60.0" fill="#747373" transform="matrix(1.00, 0.00, -0.00, -1.00, 811.3, 203.0)">?</text><image xlink:href="../../06DB6850-4B13-4F50-ACEA-CFB6CD0204C6/assets/A9830AF103AA140D2E5D022F7B7214B0.png" width="961.00" height="202.00" transform="matrix(1.03, 0.00, -0.00, -1.03, -4.0, 506.0)"></image></g></svg>