<?xml version="1.0" encoding="UTF-8" standalone="no"?><svg xmlns="http://www.w3.org/2000/svg" xmlns:xlink="http://www.w3.org/1999/xlink" clip-rule="evenodd" stroke-miterlimit="4.00" viewBox="0 0 1024 768"><desc>SVG generated by Keynote</desc><defs></defs><g transform="matrix(1.00, 0.00, -0.00, -1.00, 0.0, 768.0)"><path d="M 0.0 768.0 L 1024.0 768.0 L 1024.0 0.0 L 0.0 0.0 Z M 0.0 768.0 " fill="#FEFFFE"></path><text xml:space="preserve" font-family="HelveticaNeue-Light" font-size="52.0" fill="#000000" transform="matrix(1.00, 0.00, -0.00, -1.00, 331.0, 364.0)">n</text><text xml:space="preserve" font-family="HelveticaNeue-Light" font-size="52.0" fill="#000000" transform="matrix(1.00, 0.00, -0.00, -1.00, 358.9, 364.0)">p</text><text xml:space="preserve" font-family="HelveticaNeue-Light" font-size="52.0" fill="#000000" transform="matrix(1.00, 0.00, -0.00, -1.00, 388.8, 364.0)">m</text><text xml:space="preserve" font-family="HelveticaNeue-Light" font-size="52.0" fill="#000000" transform="matrix(1.00, 0.00, -0.00, -1.00, 432.1, 364.0)"> </text><text xml:space="preserve" font-family="HelveticaNeue-Light" font-size="52.0" fill="#000000" transform="matrix(1.00, 0.00, -0.00, -1.00, 446.5, 364.0)">p</text><text xml:space="preserve" font-family="HelveticaNeue-Light" font-size="52.0" fill="#000000" transform="matrix(1.00, 0.00, -0.00, -1.00, 476.4, 364.0)">a</text><text xml:space="preserve" font-family="HelveticaNeue-Light" font-size="52.0" fill="#000000" transform="matrix(1.00, 0.00, -0.00, -1.00, 503.4, 364.0)">c</text><text xml:space="preserve" font-family="HelveticaNeue-Light" font-size="52.0" fill="#000000" transform="matrix(1.00, 0.00, -0.00, -1.00, 530.4, 364.0)">k</text><text xml:space="preserve" font-family="HelveticaNeue-Light" font-size="52.0" fill="#000000" transform="matrix(1.00, 0.00, -0.00, -1.00, 556.4, 364.0)">a</text><text xml:space="preserve" font-family="HelveticaNeue-Light" font-size="52.0" fill="#000000" transform="matrix(1.00, 0.00, -0.00, -1.00, 583.4, 364.0)">g</text><text xml:space="preserve" font-family="HelveticaNeue-Light" font-size="52.0" fill="#000000" transform="matrix(1.00, 0.00, -0.00, -1.00, 612.3, 364.0)">e</text><text xml:space="preserve" font-family="HelveticaNeue-Light" font-size="52.0" fill="#000000" transform="matrix(1.00, 0.00, -0.00, -1.00, 639.3, 364.0)">s</text><text xml:space="preserve" font-family="HelveticaNeue-Light" font-size="52.0" fill="#000000" transform="matrix(1.00, 0.00, -0.00, -1.00, 664.3, 364.0)">.</text><text xml:space="preserve" font-family="HelveticaNeue-Light" font-size="52.0" fill="#000000" transform="matrix(1.00, 0.00, -0.00, -1.00, 678.7, 364.0)">.</text></g></svg>