<?xml version="1.0" encoding="UTF-8" standalone="no"?><svg xmlns="http://www.w3.org/2000/svg" xmlns:xlink="http://www.w3.org/1999/xlink" clip-rule="evenodd" stroke-miterlimit="4.00" viewBox="0 0 1024 768"><desc>SVG generated by Keynote</desc><defs></defs><g transform="matrix(1.00, 0.00, -0.00, -1.00, 0.0, 768.0)"><path d="M 0.0 768.0 L 1024.0 768.0 L 1024.0 0.0 L 0.0 0.0 Z M 0.0 768.0 " fill="#FEFFFE"></path><text xml:space="preserve" font-family="HelveticaNeue-Light" font-size="52.0" fill="#000000" transform="matrix(1.00, 0.00, -0.00, -1.00, 381.0, 364.0)">F</text><text xml:space="preserve" font-family="HelveticaNeue-Light" font-size="52.0" fill="#000000" transform="matrix(1.00, 0.00, -0.00, -1.00, 408.9, 364.0)">r</text><text xml:space="preserve" font-family="HelveticaNeue-Light" font-size="52.0" fill="#000000" transform="matrix(1.00, 0.00, -0.00, -1.00, 425.3, 364.0)">u</text><text xml:space="preserve" font-family="HelveticaNeue-Light" font-size="52.0" fill="#000000" transform="matrix(1.00, 0.00, -0.00, -1.00, 453.2, 364.0)">s</text><text xml:space="preserve" font-family="HelveticaNeue-Light" font-size="52.0" fill="#000000" transform="matrix(1.00, 0.00, -0.00, -1.00, 478.2, 364.0)">t</text><text xml:space="preserve" font-family="HelveticaNeue-Light" font-size="52.0" fill="#000000" transform="matrix(1.00, 0.00, -0.00, -1.00, 493.6, 364.0)">r</text><text xml:space="preserve" font-family="HelveticaNeue-Light" font-size="52.0" fill="#000000" transform="matrix(1.00, 0.00, -0.00, -1.00, 510.0, 364.0)">a</text><text xml:space="preserve" font-family="HelveticaNeue-Light" font-size="52.0" fill="#000000" transform="matrix(1.00, 0.00, -0.00, -1.00, 537.0, 364.0)">t</text><text xml:space="preserve" font-family="HelveticaNeue-Light" font-size="52.0" fill="#000000" transform="matrix(1.00, 0.00, -0.00, -1.00, 552.4, 364.0)">i</text><text xml:space="preserve" font-family="HelveticaNeue-Light" font-size="52.0" fill="#000000" transform="matrix(1.00, 0.00, -0.00, -1.00, 562.0, 364.0)">o</text><text xml:space="preserve" font-family="HelveticaNeue-Light" font-size="52.0" fill="#000000" transform="matrix(1.00, 0.00, -0.00, -1.00, 590.9, 364.0)">n</text><text xml:space="preserve" font-family="HelveticaNeue-Light" font-size="52.0" fill="#000000" transform="matrix(1.00, 0.00, -0.00, -1.00, 618.8, 364.0)">s</text></g></svg>