<?xml version="1.0" encoding="UTF-8" standalone="no"?><svg xmlns="http://www.w3.org/2000/svg" xmlns:xlink="http://www.w3.org/1999/xlink" clip-rule="evenodd" stroke-miterlimit="4.00" viewBox="0 0 1024 768"><desc>SVG generated by Keynote</desc><defs></defs><g transform="matrix(1.00, 0.00, -0.00, -1.00, 0.0, 768.0)"><path d="M 0.0 768.0 L 1024.0 768.0 L 1024.0 0.0 L 0.0 0.0 Z M 0.0 768.0 " fill="#FEFFFE"></path><text xml:space="preserve" font-family="HelveticaNeue-Light" font-size="60.0" fill="#000000" transform="matrix(1.00, 0.00, -0.00, -1.00, 398.0, 361.0)">P</text><text xml:space="preserve" font-family="HelveticaNeue-Light" font-size="60.0" fill="#000000" transform="matrix(1.00, 0.00, -0.00, -1.00, 435.8, 361.0)">o</text><text xml:space="preserve" font-family="HelveticaNeue-Light" font-size="60.0" fill="#000000" transform="matrix(1.00, 0.00, -0.00, -1.00, 469.2, 361.0)">s</text><text xml:space="preserve" font-family="HelveticaNeue-Light" font-size="60.0" fill="#000000" transform="matrix(1.00, 0.00, -0.00, -1.00, 498.0, 361.0)">i</text><text xml:space="preserve" font-family="HelveticaNeue-Light" font-size="60.0" fill="#000000" transform="matrix(1.00, 0.00, -0.00, -1.00, 509.1, 361.0)">t</text><text xml:space="preserve" font-family="HelveticaNeue-Light" font-size="60.0" fill="#000000" transform="matrix(1.00, 0.00, -0.00, -1.00, 526.9, 361.0)">i</text><text xml:space="preserve" font-family="HelveticaNeue-Light" font-size="60.0" fill="#000000" transform="matrix(1.00, 0.00, -0.00, -1.00, 538.0, 361.0)">v</text><text xml:space="preserve" font-family="HelveticaNeue-Light" font-size="60.0" fill="#000000" transform="matrix(1.00, 0.00, -0.00, -1.00, 565.8, 361.0)">e</text><text xml:space="preserve" font-family="HelveticaNeue-Light" font-size="60.0" fill="#000000" transform="matrix(1.00, 0.00, -0.00, -1.00, 596.9, 361.0)">s</text></g></svg>