<?xml version="1.0" encoding="UTF-8" standalone="no"?><svg xmlns="http://www.w3.org/2000/svg" xmlns:xlink="http://www.w3.org/1999/xlink" clip-rule="evenodd" stroke-miterlimit="4.00" viewBox="0 0 1024 768"><desc>SVG generated by Keynote</desc><defs></defs><g transform="matrix(1.00, 0.00, -0.00, -1.00, 0.0, 768.0)"><path d="M 0.0 768.0 L 1024.0 768.0 L 1024.0 0.0 L 0.0 0.0 Z M 0.0 768.0 " fill="#FEFFFE"></path><image xlink:href="87F0301530A09C7D09F0DCBAAB08ADA3.png" width="635.00" height="540.00" transform="matrix(1.42, 0.00, -0.00, -1.42, 61.0, 768.0)"></image><path d="M 0.0 0.0 L 184.5 0.0 L 184.5 47.6 L 0.0 47.6 Z M 0.0 0.0 " fill="none" stroke="#000000" stroke-width="5.00" transform="matrix(1.00, 0.00, 0.00, -1.00, 527.1, 608.0)"></path><path d="M 0.0 0.0 L 333.8 0.0 L 333.8 38.8 L 0.0 38.8 Z M 0.0 0.0 " fill="none" stroke="#000000" stroke-width="5.00" transform="matrix(1.00, 0.00, 0.00, -1.00, 146.4, 683.4)"></path><path d="M 0.0 0.0 L 333.8 0.0 L 333.8 47.6 L 0.0 47.6 Z M 0.0 0.0 " fill="none" stroke="#000000" stroke-width="5.00" transform="matrix(1.00, 0.00, 0.00, -1.00, 144.4, 528.5)"></path></g></svg>