<?xml version="1.0" encoding="UTF-8" standalone="no"?><svg xmlns="http://www.w3.org/2000/svg" xmlns:xlink="http://www.w3.org/1999/xlink" clip-rule="evenodd" stroke-miterlimit="4.00" viewBox="0 0 1024 768"><desc>SVG generated by Keynote</desc><defs></defs><g transform="matrix(1.00, 0.00, -0.00, -1.00, 0.0, 768.0)"><path d="M 0.0 768.0 L 1024.0 768.0 L 1024.0 0.0 L 0.0 0.0 Z M 0.0 768.0 " fill="#FEFFFE"></path><text xml:space="preserve" font-family="HelveticaNeue-Light" font-size="49.0" fill="#000000" transform="matrix(1.00, 0.00, -0.00, -1.00, 259.0, 483.0)">G</text><text xml:space="preserve" font-family="HelveticaNeue-Light" font-size="49.0" fill="#000000" transform="matrix(1.00, 0.00, -0.00, -1.00, 295.3, 483.0)">i</text><text xml:space="preserve" font-family="HelveticaNeue-Light" font-size="49.0" fill="#000000" transform="matrix(1.00, 0.00, -0.00, -1.00, 304.4, 483.0)">t</text><text xml:space="preserve" font-family="HelveticaNeue-Light" font-size="49.0" fill="#000000" transform="matrix(1.00, 0.00, -0.00, -1.00, 318.9, 483.0)">h</text><text xml:space="preserve" font-family="HelveticaNeue-Light" font-size="49.0" fill="#000000" transform="matrix(1.00, 0.00, -0.00, -1.00, 345.2, 483.0)">u</text><text xml:space="preserve" font-family="HelveticaNeue-Light" font-size="49.0" fill="#000000" transform="matrix(1.00, 0.00, -0.00, -1.00, 371.5, 483.0)">b</text><text xml:space="preserve" font-family="HelveticaNeue-Light" font-size="49.0" fill="#000000" transform="matrix(1.00, 0.00, -0.00, -1.00, 399.6, 483.0)"> </text><text xml:space="preserve" font-family="HelveticaNeue-Light" font-size="49.0" fill="#000000" transform="matrix(1.00, 0.00, -0.00, -1.00, 413.3, 483.0)">i</text><text xml:space="preserve" font-family="HelveticaNeue-Light" font-size="49.0" fill="#000000" transform="matrix(1.00, 0.00, -0.00, -1.00, 422.3, 483.0)">s</text><text xml:space="preserve" font-family="HelveticaNeue-Light" font-size="49.0" fill="#000000" transform="matrix(1.00, 0.00, -0.00, -1.00, 445.9, 483.0)">s</text><text xml:space="preserve" font-family="HelveticaNeue-Light" font-size="49.0" fill="#000000" transform="matrix(1.00, 0.00, -0.00, -1.00, 469.5, 483.0)">u</text><text xml:space="preserve" font-family="HelveticaNeue-Light" font-size="49.0" fill="#000000" transform="matrix(1.00, 0.00, -0.00, -1.00, 495.8, 483.0)">e</text><text xml:space="preserve" font-family="HelveticaNeue-Light" font-size="49.0" fill="#000000" transform="matrix(1.00, 0.00, -0.00, -1.00, 521.2, 483.0)"> </text><text xml:space="preserve" font-family="HelveticaNeue-Light" font-size="49.0" fill="#000000" transform="matrix(1.00, 0.00, -0.00, -1.00, 534.8, 483.0)">l</text><text xml:space="preserve" font-family="HelveticaNeue-Light" font-size="49.0" fill="#000000" transform="matrix(1.00, 0.00, -0.00, -1.00, 543.9, 483.0)">i</text><text xml:space="preserve" font-family="HelveticaNeue-Light" font-size="49.0" fill="#000000" transform="matrix(1.00, 0.00, -0.00, -1.00, 553.0, 483.0)">n</text><text xml:space="preserve" font-family="HelveticaNeue-Light" font-size="49.0" fill="#000000" transform="matrix(1.00, 0.00, -0.00, -1.00, 579.3, 483.0)">k</text><text xml:space="preserve" font-family="HelveticaNeue-Light" font-size="49.0" fill="#000000" transform="matrix(1.00, 0.00, -0.00, -1.00, 603.8, 483.0)">s</text><text xml:space="preserve" font-family="HelveticaNeue-Light" font-size="49.0" fill="#000000" transform="matrix(1.00, 0.00, -0.00, -1.00, 627.3, 483.0)"> </text><text xml:space="preserve" font-family="HelveticaNeue-Light" font-size="49.0" fill="#000000" transform="matrix(1.00, 0.00, -0.00, -1.00, 641.0, 483.0)">4</text><text xml:space="preserve" font-family="HelveticaNeue-Light" font-size="49.0" fill="#000000" transform="matrix(1.00, 0.00, -0.00, -1.00, 668.2, 483.0)">0</text><text xml:space="preserve" font-family="HelveticaNeue-Light" font-size="49.0" fill="#000000" transform="matrix(1.00, 0.00, -0.00, -1.00, 695.4, 483.0)">4</text><text xml:space="preserve" font-family="HelveticaNeue-Light" font-size="49.0" fill="#000000" transform="matrix(1.00, 0.00, -0.00, -1.00, 722.7, 483.0)">’</text><text xml:space="preserve" font-family="HelveticaNeue-Light" font-size="49.0" fill="#000000" transform="matrix(1.00, 0.00, -0.00, -1.00, 736.3, 483.0)">d</text><text xml:space="preserve" font-family="HelveticaNeue-Light" font-size="49.0" fill="#000000" transform="matrix(1.00, 0.00, -0.00, -1.00, 764.4, 483.0)"> </text><text xml:space="preserve" font-family="HelveticaNeue-Light" font-size="49.0" fill="#000000" transform="matrix(1.00, 0.00, -0.00, -1.00, 333.0, 425.0)">I</text><text xml:space="preserve" font-family="HelveticaNeue-Light" font-size="49.0" fill="#000000" transform="matrix(1.00, 0.00, -0.00, -1.00, 343.9, 425.0)">s</text><text xml:space="preserve" font-family="HelveticaNeue-Light" font-size="49.0" fill="#000000" transform="matrix(1.00, 0.00, -0.00, -1.00, 367.4, 425.0)">s</text><text xml:space="preserve" font-family="HelveticaNeue-Light" font-size="49.0" fill="#000000" transform="matrix(1.00, 0.00, -0.00, -1.00, 391.0, 425.0)">u</text><text xml:space="preserve" font-family="HelveticaNeue-Light" font-size="49.0" fill="#000000" transform="matrix(1.00, 0.00, -0.00, -1.00, 417.3, 425.0)">e</text><text xml:space="preserve" font-family="HelveticaNeue-Light" font-size="49.0" fill="#000000" transform="matrix(1.00, 0.00, -0.00, -1.00, 442.8, 425.0)"> </text><text xml:space="preserve" font-family="HelveticaNeue-Light" font-size="49.0" fill="#000000" transform="matrix(1.00, 0.00, -0.00, -1.00, 456.4, 425.0)">t</text><text xml:space="preserve" font-family="HelveticaNeue-Light" font-size="49.0" fill="#000000" transform="matrix(1.00, 0.00, -0.00, -1.00, 470.9, 425.0)">a</text><text xml:space="preserve" font-family="HelveticaNeue-Light" font-size="49.0" fill="#000000" transform="matrix(1.00, 0.00, -0.00, -1.00, 496.3, 425.0)">b</text><text xml:space="preserve" font-family="HelveticaNeue-Light" font-size="49.0" fill="#000000" transform="matrix(1.00, 0.00, -0.00, -1.00, 524.4, 425.0)"> </text><text xml:space="preserve" font-family="HelveticaNeue-Light" font-size="49.0" fill="#000000" transform="matrix(1.00, 0.00, -0.00, -1.00, 538.1, 425.0)">i</text><text xml:space="preserve" font-family="HelveticaNeue-Light" font-size="49.0" fill="#000000" transform="matrix(1.00, 0.00, -0.00, -1.00, 547.1, 425.0)">s</text><text xml:space="preserve" font-family="HelveticaNeue-Light" font-size="49.0" fill="#000000" transform="matrix(1.00, 0.00, -0.00, -1.00, 570.7, 425.0)"> </text><text xml:space="preserve" font-family="HelveticaNeue-Light" font-size="49.0" fill="#000000" transform="matrix(1.00, 0.00, -0.00, -1.00, 584.3, 425.0)">g</text><text xml:space="preserve" font-family="HelveticaNeue-Light" font-size="49.0" fill="#000000" transform="matrix(1.00, 0.00, -0.00, -1.00, 611.6, 425.0)">o</text><text xml:space="preserve" font-family="HelveticaNeue-Light" font-size="49.0" fill="#000000" transform="matrix(1.00, 0.00, -0.00, -1.00, 638.8, 425.0)">n</text><text xml:space="preserve" font-family="HelveticaNeue-Light" font-size="49.0" fill="#000000" transform="matrix(1.00, 0.00, -0.00, -1.00, 665.1, 425.0)">e</text><text xml:space="preserve" font-family="HelveticaNeue-Light" font-size="49.0" fill="#000000" transform="matrix(1.00, 0.00, -0.00, -1.00, 690.6, 425.0)"> </text><text xml:space="preserve" font-family="HelveticaNeue-Light" font-size="49.0" fill="#000000" transform="matrix(1.00, 0.00, -0.00, -1.00, 296.0, 367.0)">W</text><text xml:space="preserve" font-family="HelveticaNeue-Light" font-size="49.0" fill="#000000" transform="matrix(1.00, 0.00, -0.00, -1.00, 339.6, 367.0)">o</text><text xml:space="preserve" font-family="HelveticaNeue-Light" font-size="49.0" fill="#000000" transform="matrix(1.00, 0.00, -0.00, -1.00, 366.8, 367.0)">r</text><text xml:space="preserve" font-family="HelveticaNeue-Light" font-size="49.0" fill="#000000" transform="matrix(1.00, 0.00, -0.00, -1.00, 382.2, 367.0)">s</text><text xml:space="preserve" font-family="HelveticaNeue-Light" font-size="49.0" fill="#000000" transform="matrix(1.00, 0.00, -0.00, -1.00, 405.8, 367.0)">e</text><text xml:space="preserve" font-family="HelveticaNeue-Light" font-size="49.0" fill="#000000" transform="matrix(1.00, 0.00, -0.00, -1.00, 431.2, 367.0)"> </text><text xml:space="preserve" font-family="HelveticaNeue-Light" font-size="49.0" fill="#000000" transform="matrix(1.00, 0.00, -0.00, -1.00, 444.9, 367.0)">u</text><text xml:space="preserve" font-family="HelveticaNeue-Light" font-size="49.0" fill="#000000" transform="matrix(1.00, 0.00, -0.00, -1.00, 471.2, 367.0)">s</text><text xml:space="preserve" font-family="HelveticaNeue-Light" font-size="49.0" fill="#000000" transform="matrix(1.00, 0.00, -0.00, -1.00, 494.7, 367.0)">e</text><text xml:space="preserve" font-family="HelveticaNeue-Light" font-size="49.0" fill="#000000" transform="matrix(1.00, 0.00, -0.00, -1.00, 520.2, 367.0)">r</text><text xml:space="preserve" font-family="HelveticaNeue-Light" font-size="49.0" fill="#000000" transform="matrix(1.00, 0.00, -0.00, -1.00, 535.6, 367.0)"> </text><text xml:space="preserve" font-family="HelveticaNeue-Light" font-size="49.0" fill="#000000" transform="matrix(1.00, 0.00, -0.00, -1.00, 549.2, 367.0)">b</text><text xml:space="preserve" font-family="HelveticaNeue-Light" font-size="49.0" fill="#000000" transform="matrix(1.00, 0.00, -0.00, -1.00, 577.4, 367.0)">e</text><text xml:space="preserve" font-family="HelveticaNeue-Light" font-size="49.0" fill="#000000" transform="matrix(1.00, 0.00, -0.00, -1.00, 602.8, 367.0)">h</text><text xml:space="preserve" font-family="HelveticaNeue-Light" font-size="49.0" fill="#000000" transform="matrix(1.00, 0.00, -0.00, -1.00, 629.1, 367.0)">a</text><text xml:space="preserve" font-family="HelveticaNeue-Light" font-size="49.0" fill="#000000" transform="matrix(1.00, 0.00, -0.00, -1.00, 654.5, 367.0)">v</text><text xml:space="preserve" font-family="HelveticaNeue-Light" font-size="49.0" fill="#000000" transform="matrix(1.00, 0.00, -0.00, -1.00, 677.2, 367.0)">i</text><text xml:space="preserve" font-family="HelveticaNeue-Light" font-size="49.0" fill="#000000" transform="matrix(1.00, 0.00, -0.00, -1.00, 686.3, 367.0)">o</text><text xml:space="preserve" font-family="HelveticaNeue-Light" font-size="49.0" fill="#000000" transform="matrix(1.00, 0.00, -0.00, -1.00, 713.5, 367.0)">r</text><text xml:space="preserve" font-family="HelveticaNeue-Light" font-size="49.0" fill="#000000" transform="matrix(1.00, 0.00, -0.00, -1.00, 729.0, 367.0)"> </text><text xml:space="preserve" font-family="HelveticaNeue-Light" font-size="50.0" fill="#000000" transform="matrix(1.00, 0.00, -0.00, -1.00, 369.0, 307.0)">L</text><text xml:space="preserve" font-family="HelveticaNeue-Light" font-size="50.0" fill="#000000" transform="matrix(1.00, 0.00, -0.00, -1.00, 395.9, 307.0)">e</text><text xml:space="preserve" font-family="HelveticaNeue-Light" font-size="50.0" fill="#000000" transform="matrix(1.00, 0.00, -0.00, -1.00, 421.8, 307.0)">s</text><text xml:space="preserve" font-family="HelveticaNeue-Light" font-size="50.0" fill="#000000" transform="matrix(1.00, 0.00, -0.00, -1.00, 445.9, 307.0)">s</text><text xml:space="preserve" font-family="HelveticaNeue-Light" font-size="50.0" fill="#000000" transform="matrix(1.00, 0.00, -0.00, -1.00, 469.9, 307.0)"> </text><text xml:space="preserve" font-family="HelveticaNeue-Light" font-size="50.0" fill="#000000" transform="matrix(1.00, 0.00, -0.00, -1.00, 483.8, 307.0)">“</text><text xml:space="preserve" font-family="HelveticaNeue-Light" font-size="50.0" fill="#000000" transform="matrix(1.00, 0.00, -0.00, -1.00, 502.3, 307.0)">i</text><text xml:space="preserve" font-family="HelveticaNeue-Light" font-size="50.0" fill="#000000" transform="matrix(1.00, 0.00, -0.00, -1.00, 511.6, 307.0)">s</text><text xml:space="preserve" font-family="HelveticaNeue-Light" font-size="50.0" fill="#000000" transform="matrix(1.00, 0.00, -0.00, -1.00, 535.6, 307.0)">s</text><text xml:space="preserve" font-family="HelveticaNeue-Light" font-size="50.0" fill="#000000" transform="matrix(1.00, 0.00, -0.00, -1.00, 559.7, 307.0)">u</text><text xml:space="preserve" font-family="HelveticaNeue-Light" font-size="50.0" fill="#000000" transform="matrix(1.00, 0.00, -0.00, -1.00, 586.5, 307.0)">e</text><text xml:space="preserve" font-family="HelveticaNeue-Light" font-size="50.0" fill="#000000" transform="matrix(1.00, 0.00, -0.00, -1.00, 612.5, 307.0)">s</text><text xml:space="preserve" font-family="HelveticaNeue-Light" font-size="50.0" fill="#000000" transform="matrix(1.00, 0.00, -0.00, -1.00, 636.5, 307.0)">”</text><text xml:space="preserve" font-family="HelveticaNeue-Light" font-size="50.0" fill="#000000" transform="matrix(1.00, 0.00, -0.00, -1.00, 655.0, 307.0)"> </text><text xml:space="preserve" font-family="HelveticaNeue-Light" font-size="49.0" fill="#000000" transform="matrix(1.00, 0.00, -0.00, -1.00, 85.0, 249.0)">P</text><text xml:space="preserve" font-family="HelveticaNeue-Light" font-size="49.0" fill="#000000" transform="matrix(1.00, 0.00, -0.00, -1.00, 115.9, 249.0)">o</text><text xml:space="preserve" font-family="HelveticaNeue-Light" font-size="49.0" fill="#000000" transform="matrix(1.00, 0.00, -0.00, -1.00, 143.1, 249.0)">s</text><text xml:space="preserve" font-family="HelveticaNeue-Light" font-size="49.0" fill="#000000" transform="matrix(1.00, 0.00, -0.00, -1.00, 166.7, 249.0)">t</text><text xml:space="preserve" font-family="HelveticaNeue-Light" font-size="49.0" fill="#000000" transform="matrix(1.00, 0.00, -0.00, -1.00, 181.2, 249.0)"> </text><text xml:space="preserve" font-family="HelveticaNeue-Light" font-size="49.0" fill="#000000" transform="matrix(1.00, 0.00, -0.00, -1.00, 194.8, 249.0)">“</text><text xml:space="preserve" font-family="HelveticaNeue-Light" font-size="49.0" fill="#000000" transform="matrix(1.00, 0.00, -0.00, -1.00, 212.9, 249.0)">D</text><text xml:space="preserve" font-family="HelveticaNeue-Light" font-size="49.0" fill="#000000" transform="matrix(1.00, 0.00, -0.00, -1.00, 246.5, 249.0)">e</text><text xml:space="preserve" font-family="HelveticaNeue-Light" font-size="49.0" fill="#000000" transform="matrix(1.00, 0.00, -0.00, -1.00, 271.9, 249.0)">a</text><text xml:space="preserve" font-family="HelveticaNeue-Light" font-size="49.0" fill="#000000" transform="matrix(1.00, 0.00, -0.00, -1.00, 297.4, 249.0)">r</text><text xml:space="preserve" font-family="HelveticaNeue-Light" font-size="49.0" fill="#000000" transform="matrix(1.00, 0.00, -0.00, -1.00, 312.8, 249.0)"> </text><text xml:space="preserve" font-family="HelveticaNeue-Light" font-size="49.0" fill="#000000" transform="matrix(1.00, 0.00, -0.00, -1.00, 326.4, 249.0)">G</text><text xml:space="preserve" font-family="HelveticaNeue-Light" font-size="49.0" fill="#000000" transform="matrix(1.00, 0.00, -0.00, -1.00, 362.7, 249.0)">i</text><text xml:space="preserve" font-family="HelveticaNeue-Light" font-size="49.0" fill="#000000" transform="matrix(1.00, 0.00, -0.00, -1.00, 371.8, 249.0)">t</text><text xml:space="preserve" font-family="HelveticaNeue-Light" font-size="49.0" fill="#000000" transform="matrix(1.00, 0.00, -0.00, -1.00, 386.3, 249.0)">h</text><text xml:space="preserve" font-family="HelveticaNeue-Light" font-size="49.0" fill="#000000" transform="matrix(1.00, 0.00, -0.00, -1.00, 412.6, 249.0)">u</text><text xml:space="preserve" font-family="HelveticaNeue-Light" font-size="49.0" fill="#000000" transform="matrix(1.00, 0.00, -0.00, -1.00, 438.9, 249.0)">b</text><text xml:space="preserve" font-family="HelveticaNeue-Light" font-size="49.0" fill="#000000" transform="matrix(1.00, 0.00, -0.00, -1.00, 467.1, 249.0)">”</text><text xml:space="preserve" font-family="HelveticaNeue-Light" font-size="49.0" fill="#000000" transform="matrix(1.00, 0.00, -0.00, -1.00, 485.2, 249.0)">,</text><text xml:space="preserve" font-family="HelveticaNeue-Light" font-size="49.0" fill="#000000" transform="matrix(1.00, 0.00, -0.00, -1.00, 498.8, 249.0)"> </text><text xml:space="preserve" font-family="HelveticaNeue-Light" font-size="49.0" fill="#000000" transform="matrix(1.00, 0.00, -0.00, -1.00, 512.4, 249.0)">m</text><text xml:space="preserve" font-family="HelveticaNeue-Light" font-size="49.0" fill="#000000" transform="matrix(1.00, 0.00, -0.00, -1.00, 553.2, 249.0)">a</text><text xml:space="preserve" font-family="HelveticaNeue-Light" font-size="49.0" fill="#000000" transform="matrix(1.00, 0.00, -0.00, -1.00, 578.7, 249.0)">n</text><text xml:space="preserve" font-family="HelveticaNeue-Light" font-size="49.0" fill="#000000" transform="matrix(1.00, 0.00, -0.00, -1.00, 605.0, 249.0)">y</text><text xml:space="preserve" font-family="HelveticaNeue-Light" font-size="49.0" fill="#000000" transform="matrix(1.00, 0.00, -0.00, -1.00, 627.7, 249.0)"> </text><text xml:space="preserve" font-family="HelveticaNeue-Light" font-size="49.0" fill="#000000" transform="matrix(1.00, 0.00, -0.00, -1.00, 641.3, 249.0)">i</text><text xml:space="preserve" font-family="HelveticaNeue-Light" font-size="49.0" fill="#000000" transform="matrix(1.00, 0.00, -0.00, -1.00, 650.4, 249.0)">m</text><text xml:space="preserve" font-family="HelveticaNeue-Light" font-size="49.0" fill="#000000" transform="matrix(1.00, 0.00, -0.00, -1.00, 691.2, 249.0)">p</text><text xml:space="preserve" font-family="HelveticaNeue-Light" font-size="49.0" fill="#000000" transform="matrix(1.00, 0.00, -0.00, -1.00, 719.3, 249.0)">r</text><text xml:space="preserve" font-family="HelveticaNeue-Light" font-size="49.0" fill="#000000" transform="matrix(1.00, 0.00, -0.00, -1.00, 733.9, 249.0)">o</text><text xml:space="preserve" font-family="HelveticaNeue-Light" font-size="49.0" fill="#000000" transform="matrix(1.00, 0.00, -0.00, -1.00, 761.1, 249.0)">v</text><text xml:space="preserve" font-family="HelveticaNeue-Light" font-size="49.0" fill="#000000" transform="matrix(1.00, 0.00, -0.00, -1.00, 783.8, 249.0)">e</text><text xml:space="preserve" font-family="HelveticaNeue-Light" font-size="49.0" fill="#000000" transform="matrix(1.00, 0.00, -0.00, -1.00, 809.2, 249.0)">m</text><text xml:space="preserve" font-family="HelveticaNeue-Light" font-size="49.0" fill="#000000" transform="matrix(1.00, 0.00, -0.00, -1.00, 850.0, 249.0)">e</text><text xml:space="preserve" font-family="HelveticaNeue-Light" font-size="49.0" fill="#000000" transform="matrix(1.00, 0.00, -0.00, -1.00, 875.5, 249.0)">n</text><text xml:space="preserve" font-family="HelveticaNeue-Light" font-size="49.0" fill="#000000" transform="matrix(1.00, 0.00, -0.00, -1.00, 901.8, 249.0)">t</text><text xml:space="preserve" font-family="HelveticaNeue-Light" font-size="49.0" fill="#000000" transform="matrix(1.00, 0.00, -0.00, -1.00, 916.3, 249.0)">s</text></g></svg>